<?xml version="1.0" standalone="no"?>
<!DOCTYPE svg PUBLIC "-//W3C//DTD SVG 20010904//EN"
 "http://www.w3.org/TR/2001/REC-SVG-20010904/DTD/svg10.dtd">
<svg version="1.0" xmlns="http://www.w3.org/2000/svg"
 width="250.000000pt" height="250.000000pt" viewBox="0 0 250.000000 250.000000"
 preserveAspectRatio="xMidYMid meet">
<metadata>
Created by potrace 1.11, written by Peter Selinger 2001-2013
</metadata>
<g transform="translate(0.000000,250.000000) scale(0.100000,-0.100000)"
fill="#000000" stroke="none">
<path d="M1105 2474 c-90 -14 -198 -39 -260 -61 -410 -146 -708 -486 -801
-913 -27 -125 -25 -381 4 -508 110 -475 474 -835 952 -938 119 -26 371 -26
490 0 483 105 852 474 956 956 23 106 26 361 5 465 -98 497 -467 873 -963 981
-71 15 -321 27 -383 18z m185 -243 l0 -48 -112 -6 c-137 -7 -219 -29 -353 -97
-185 -93 -324 -235 -414 -424 -73 -152 -86 -211 -86 -401 0 -190 13 -249 86
-401 127 -267 358 -447 652 -509 88 -19 276 -19 364 0 288 61 520 240 650 500
50 100 93 255 93 337 l0 28 -315 0 -315 0 0 45 0 45 367 0 366 0 -6 -102 c-27
-454 -339 -828 -784 -940 -73 -19 -115 -22 -243 -22 -135 1 -168 4 -254 27
-362 97 -636 371 -734 736 -22 84 -25 115 -25 256 0 140 3 172 25 255 32 120
73 211 142 314 184 275 500 451 819 455 l77 1 0 -49z m-362 -461 c95 -58 95
-192 0 -250 -66 -40 -155 -17 -199 52 -16 26 -19 45 -16 87 3 48 8 58 45 93
36 33 47 38 89 38 30 0 60 -7 81 -20z m364 -467 l3 -488 123 -3 122 -3 0 -44
0 -45 -170 0 -170 0 0 535 0 535 45 0 45 0 2 -487z"/>
</g>
</svg>
